HIERARCHY
ROOT Hips
{
	OFFSET 0.00000 0.00000 0.00000
	CHANNELS 6 Xposition Yposition Zposition Zrotation Yrotation Xrotation 
	JOINT LHipJoint
	{
		OFFSET 0 0 0
		CHANNELS 3 Zrotation Yrotation Xrotation
		JOINT LeftUpLeg
		{
			OFFSET 1.85742 -1.74412 1.01653
			CHANNELS 3 Zrotation Yrotation Xrotation
			JOINT LeftLeg
			{
				OFFSET 2.54803 -7.00067 0.00000
				CHANNELS 3 Zrotation Yrotation Xrotation
				JOINT LeftFoot
				{
					OFFSET 2.51202 -6.90173 0.00000
					CHANNELS 3 Zrotation Yrotation Xrotation
					JOINT LeftToeBase
					{
						OFFSET 0.17547 -0.48209 1.64281
						CHANNELS 3 Zrotation Yrotation Xrotation
						End Site
						{
							OFFSET 0.00000 -0.00000 0.86587
						}
					}
				}
			}
		}
	}
	JOINT RHipJoint
	{
		OFFSET 0 0 0
		CHANNELS 3 Zrotation Yrotation Xrotation
		JOINT RightUpLeg
		{
			OFFSET -1.95533 -1.74413 1.01654
			CHANNELS 3 Zrotation Yrotation Xrotation
			JOINT RightLeg
			{
				OFFSET -2.49465 -6.85400 0.00000
				CHANNELS 3 Zrotation Yrotation Xrotation
				JOINT RightFoot
				{
					OFFSET -2.54783 -7.00010 0.00000
					CHANNELS 3 Zrotation Yrotation Xrotation
					JOINT RightToeBase
					{
						OFFSET -0.18513 -0.50864 1.69288
						CHANNELS 3 Zrotation Yrotation Xrotation
						End Site
						{
							OFFSET -0.00000 -0.00000 0.89242
						}
					}
				}
			}
		}
	}
	JOINT LowerBack
	{
		OFFSET 0 0 0
		CHANNELS 3 Zrotation Yrotation Xrotation
		JOINT Spine
		{
			OFFSET 0.02173 2.16290 -0.15998
			CHANNELS 3 Zrotation Yrotation Xrotation
			JOINT Spine1
			{
				OFFSET 0.00940 2.17323 -0.00467
				CHANNELS 3 Zrotation Yrotation Xrotation
				JOINT Neck
				{
					OFFSET 0 0 0
					CHANNELS 3 Zrotation Yrotation Xrotation
					JOINT Neck1
					{
						OFFSET 0.01475 1.85823 0.31113
						CHANNELS 3 Zrotation Yrotation Xrotation
						JOINT Head
						{
							OFFSET 0.01902 1.88783 -0.37187
							CHANNELS 3 Zrotation Yrotation Xrotation
							End Site
							{
								OFFSET 0.00489 1.93211 -0.16169
							}
						}
					}
				}
				JOINT LeftShoulder
				{
					OFFSET 0 0 0
					CHANNELS 3 Zrotation Yrotation Xrotation
					JOINT LeftArm
					{
						OFFSET 3.34199 1.32384 -0.07862
						CHANNELS 3 Zrotation Yrotation Xrotation
						JOINT LeftForeArm
						{
							OFFSET 5.27950 -0.00000 0.00000
							CHANNELS 3 Zrotation Yrotation Xrotation
							JOINT LeftHand
							{
								OFFSET 3.53504 -0.00000 0.00000
								CHANNELS 3 Zrotation Yrotation Xrotation
								JOINT LeftFingerBase
								{
									OFFSET 0 0 0
									CHANNELS 3 Zrotation Yrotation Xrotation
									JOINT LeftHandIndex1
									{
										OFFSET 0.66795 -0.00000 0.00000
										CHANNELS 3 Zrotation Yrotation Xrotation
										End Site
										{
											OFFSET 0.53852 -0.00000 0.00000
										}
									}
								}
								JOINT LThumb
								{
									OFFSET 0 0 0
									CHANNELS 3 Zrotation Yrotation Xrotation
									End Site
									{
										OFFSET 0.54674 -0.00000 0.54674
									}
								}
							}
						}
					}
				}
				JOINT RightShoulder
				{
					OFFSET 0 0 0
					CHANNELS 3 Zrotation Yrotation Xrotation
					JOINT RightArm
					{
						OFFSET -3.16149 1.45719 -0.50507
						CHANNELS 3 Zrotation Yrotation Xrotation
						JOINT RightForeArm
						{
							OFFSET -5.25035 -0.00000 0.00000
							CHANNELS 3 Zrotation Yrotation Xrotation
							JOINT RightHand
							{
								OFFSET -3.58884 -0.00000 0.00000
								CHANNELS 3 Zrotation Yrotation Xrotation
								JOINT RightFingerBase
								{
									OFFSET 0 0 0
									CHANNELS 3 Zrotation Yrotation Xrotation
									JOINT RightHandIndex1
									{
										OFFSET -0.77924 -0.00000 0.00000
										CHANNELS 3 Zrotation Yrotation Xrotation
										End Site
										{
											OFFSET -0.62824 -0.00000 0.00000
										}
									}
								}
								JOINT RThumb
								{
									OFFSET 0 0 0
									CHANNELS 3 Zrotation Yrotation Xrotation
									End Site
									{
										OFFSET -0.63783 -0.00000 0.63783
									}
								}
							}
						}
					}
				}
			}
		}
	}
}
MOTION
Frames: 7
Frame Time: .0083333
-8.5179 17.5799 -6.2589 -158.2400 65.9475 -140.0610 0.0000 0.0000 0.0000 -1.0669 -21.1343 -37.2313 3.7302 11.7925 35.0017 0.3978 -10.1294 -12.4051 2.1370 -9.1459 -26.2528 0.0000 0.0000 0.0000 21.5408 -3.7529 -11.9440 0.0000 -0.0000 0.0000 0.5959 -14.0259 -9.1945 -0.9435 6.1866 -17.3268 -8.0297 1.3709 15.7465 -8.8620 1.3971 6.7932 -5.1441 1.0853 -1.4458 -0.1641 -3.9191 -20.1427 6.0542 -5.8470 44.0360 2.1142 -0.7272 21.5992 -0.0000 -0.0000 0.0000 -98.6302 -37.9595 112.2576 20.4735 -31.2086 -5.7747 -0.0000 0.0000 -0.2822 39.3289 56.7840 34.4292 -7.1250 0.0000 -0.0000 -123.9121 -84.8598 128.2950 -0.0000 -0.0000 0.0000 46.8432 17.6418 66.2382 -60.6541 56.4817 -34.8859 0.0000 -0.0000 -68.5700 -14.7216 -12.7499 3.3187 7.1250 -0.0000 -0.0000 11.3685 -42.8603 0.6087
-8.5254 17.5780 -6.2562 -158.1560 65.9548 -139.9960 0.0000 0.0000 0.0000 -0.9976 -21.2651 -37.2138 3.7337 11.7973 35.0188 0.4149 -9.8991 -12.5173 2.3288 -9.5198 -27.4352 0.0000 0.0000 0.0000 21.5619 -3.7202 -11.9588 0.0000 0.0000 -0.0000 0.5872 -13.9323 -9.1558 -0.9607 6.2412 -17.4858 -7.9495 1.3729 15.8114 -8.8803 1.3980 6.7727 -5.2129 1.0880 -1.5014 -0.1436 -3.9517 -20.1150 6.1512 -5.9556 44.0030 2.1350 -0.7517 21.5814 0.0000 -0.0000 0.0000 -98.5556 -37.9965 112.3439 20.5113 -31.2534 -5.7943 -0.0000 0.0000 -0.3728 39.4481 56.8213 34.5541 -7.1250 0.0000 -0.0000 -124.7370 -84.8360 129.0997 0.0000 -0.0000 0.0000 47.0711 17.9838 66.6219 -60.0161 56.3142 -34.3545 0.0000 -0.0000 -67.1755 -15.2503 -13.3437 3.6004 7.1250 -0.0000 -0.0000 11.0435 -43.5152 0.4100
-8.5339 17.5791 -6.2539 -158.0740 65.8964 -139.9300 0.0000 0.0000 0.0000 -0.9188 -21.3286 -37.2454 3.7375 11.8026 35.0372 0.4209 -9.7945 -12.5493 2.4411 -9.7301 -28.1070 0.0000 0.0000 0.0000 21.6282 -3.7425 -11.9667 0.0000 0.0000 -0.0000 0.5772 -13.8317 -9.1486 -0.9329 6.1527 -17.2282 -7.8204 1.3584 15.9098 -8.8963 1.3803 6.7550 -5.3050 1.0826 -1.5720 -0.0310 -3.9667 -20.1251 6.1783 -6.0391 44.0263 2.1117 -0.7570 21.6059 0.0000 -0.0000 0.0000 -98.5097 -38.0412 112.4850 20.5207 -31.2645 -5.7991 -0.0000 0.0000 -0.4848 39.6643 56.8602 34.7719 -7.1250 0.0000 -0.0000 -126.0724 -84.8128 130.3863 0.0000 -0.0000 0.0000 47.3064 18.3474 67.0637 -59.1048 56.0666 -33.5973 0.0000 -0.0000 -65.0881 -15.4998 -13.6654 3.7485 7.1250 -0.0000 -0.0000 10.9000 -43.8675 0.3085
-8.5430 17.5792 -6.2508 -158.1630 65.8084 -140.0440 0.0000 0.0000 0.0000 -0.8697 -21.5034 -37.2537 3.7422 11.8093 35.0605 0.4274 -9.6840 -12.5871 2.4523 -9.7507 -28.1732 0.0000 0.0000 0.0000 21.6486 -3.8455 -11.9599 0.0000 -0.0000 0.0000 0.5640 -13.7227 -9.2390 -0.8796 5.9789 -16.7231 -7.7517 1.3251 16.0997 -8.9294 1.3182 6.7240 -5.3790 1.0568 -1.7068 0.0165 -3.9941 -20.1478 6.3515 -6.1695 44.1086 2.1734 -0.7666 21.7001 -0.0000 -0.0000 0.0000 -98.4469 -38.0585 112.5670 20.5065 -31.2477 -5.7918 -0.0000 0.0000 -0.5987 39.7310 56.8781 34.8410 -7.1250 0.0000 -0.0000 -126.5084 -84.8004 130.8099 -0.0000 -0.0000 0.0000 47.5676 18.6563 67.5079 -58.2339 55.8207 -32.8758 0.0000 -0.0000 -63.7942 -15.7712 -13.6998 3.8268 7.1250 -0.0000 -0.0000 10.6653 -43.9324 0.2844
-8.5492 17.5760 -6.2465 -158.2080 65.7195 -140.1320 0.0000 0.0000 0.0000 -0.7694 -21.7766 -37.2077 3.7462 11.8148 35.0798 0.4422 -9.4624 -12.6834 2.4753 -9.7929 -28.3088 0.0000 0.0000 0.0000 21.6869 -3.9372 -11.9510 0.0000 0.0000 -0.0000 0.5497 -13.6194 -9.3962 -0.8445 5.8615 -16.3830 -7.7394 1.3169 16.2900 -8.9425 1.2803 6.6908 -5.4038 1.0413 -1.8444 -0.0220 -4.0598 -20.1729 6.6342 -6.3702 44.2090 2.2960 -0.8010 21.8313 -0.0000 -0.0000 0.0000 -98.4331 -38.0272 112.5821 20.4627 -31.1957 -5.7691 -0.0000 0.0000 -0.6582 39.6280 56.8227 34.7258 -7.1250 0.0000 -0.0000 -125.6954 -84.8418 130.0040 -0.0000 -0.0000 0.0000 47.7594 18.8051 67.8883 -57.7600 55.6829 -32.4840 0.0000 -0.0000 -63.3653 -16.1476 -13.5073 3.8688 7.1250 -0.0000 -0.0000 10.2807 -43.7786 0.3134
-8.5538 17.5748 -6.2422 -158.0420 65.6210 -139.9630 0.0000 0.0000 0.0000 -0.5880 -21.8705 -37.2519 3.7457 11.8141 35.0774 0.4503 -9.3857 -12.7510 2.5361 -9.9032 -28.6638 0.0000 0.0000 0.0000 21.8232 -3.9522 -11.9898 0.0000 0.0000 -0.0000 0.5389 -13.5499 -9.5428 -0.8186 5.7730 -16.1273 -7.7008 1.3309 16.3611 -8.9211 1.2834 6.6438 -5.4072 1.0421 -1.9334 -0.1365 -4.1571 -20.5068 6.8350 -6.5787 44.2069 2.3840 -0.8599 22.3841 0.0000 0.0000 0.0000 -98.4910 -37.9679 112.5627 20.3917 -31.1113 -5.7323 -0.0000 0.0000 -0.7066 39.5212 56.8034 34.6182 -7.1250 0.0000 -0.0000 -125.0323 -84.8532 129.3651 0.0000 0.0000 0.0000 47.8592 18.8270 68.2582 -57.5325 55.6157 -32.2962 0.0000 -0.0000 -62.3970 -16.6588 -12.9430 3.8343 7.1250 -0.0000 -0.0000 9.6914 -43.2589 0.4206
-8.5638 17.5724 -6.2403 -158.2330 65.3881 -140.1610 0.0000 0.0000 0.0000 -0.4747 -22.1485 -37.2742 3.7374 11.8025 35.0367 0.4472 -9.3693 -12.7117 2.5125 -9.8606 -28.5265 0.0000 0.0000 0.0000 21.8966 -4.1850 -12.0393 0.0000 -0.0000 0.0000 0.5290 -13.4729 -9.6233 -0.7716 5.6088 -15.6534 -7.5764 1.2678 16.5933 -8.9360 1.1841 6.6080 -5.4876 0.9979 -2.0980 -0.0307 -4.2344 -20.5092 6.8413 -6.7447 44.2901 2.3345 -0.8958 22.4671 0.0000 0.0000 0.0000 -98.6207 -37.9193 112.5929 20.2451 -30.9365 -5.6568 -0.0000 0.0000 -0.7777 39.4656 56.8208 34.5705 -7.1250 0.0000 -0.0000 -124.8266 -84.8371 129.1838 0.0000 0.0000 0.0000 47.9195 18.8561 68.7152 -57.2716 55.5380 -32.0810 0.0000 -0.0000 -60.3480 -17.2888 -12.1354 3.7436 7.1250 -0.0000 -0.0000 8.9549 -42.4967 0.5580
